<?xml version="1.0" encoding="UTF-8"?>
<svg version="1.1" xmlns="http://www.w3.org/2000/svg" width="328" height="276">
  <!-- Fundo roxo removido (fill="none") -->
  <path d="M0 0 C108.24 0 216.48 0 328 0 C328 91.08 328 182.16 328 276 C219.76 276 111.52 276 0 276 C0 184.92 0 93.84 0 0 Z" fill="none" transform="translate(0,0)"/>
  
  <!-- Mantém o branco -->
  <path d="M0 0 C19.07359296 12.78617589 30.67465838 31.34120356 36.30752563 53.3061676 C36.94979378 57.36360992 36.93548578 61.36426565 36.95556641 65.46655273 C36.9637439 66.39398788 36.97192139 67.32142303 36.98034668 68.27696228 C37.00510496 71.33762985 37.02168842 74.39825148 37.03613281 77.45898438 C37.04145649 78.50603609 37.04678017 79.55308781 37.05226517 80.63186836 C37.07894975 86.16952913 37.09834327 91.70716768 37.11279297 97.24487305 C37.12615344 101.82612987 37.15405192 106.40694353 37.19482422 110.98803711 C37.24409507 116.52462152 37.2689064 122.06080283 37.27602005 127.59759712 C37.28273645 129.70553555 37.29796852 131.81346484 37.32191086 133.921278 C37.35351049 136.87044201 37.35360734 139.81804531 37.34619141 142.76733398 C37.36259674 143.635578 37.37900208 144.50382202 37.39590454 145.39837646 C37.35229623 149.63828146 37.07034033 152.33553412 34.33950806 155.68409729 C30.64910144 159.26097748 29.07322542 160.00976782 23.95019531 160.68164062 C19.58337406 160.58369323 17.34054564 158.76961441 14.20800781 155.88476562 C10.41125815 151.41075791 10.47895926 147.16102443 10.50732422 141.47265625 C10.50189354 140.15470062 10.50189354 140.15470062 10.49635315 138.81011963 C10.48946287 136.90258319 10.48695302 134.99502705 10.48830032 133.08747864 C10.48926694 130.05928296 10.47630422 127.03144096 10.45932007 124.0032959 C10.41310877 115.39350174 10.38847289 106.78374201 10.38183594 98.17382812 C10.37679466 92.90410804 10.35240598 87.63475383 10.31650925 82.36515808 C10.30676528 80.36551622 10.30434951 78.36582366 10.30968094 76.36616516 C10.35658457 57.89609477 7.13281445 43.2998532 -5.85449219 29.34960938 C-18.14873643 18.16386257 -32.40598854 14.19570992 -48.63964844 14.79882812 C-58.95975048 15.47478949 -67.88211413 19.20167146 -76.23730469 25.18164062 C-77.00816406 25.73335937 -77.77902344 26.28507812 -78.57324219 26.85351562 C-88.80008756 35.02103036 -93.54448151 46.63270119 -96.93652344 58.90429688 C-98.63359653 63.18010567 -101.0849791 66.10547783 -105.23730469 68.18164062 C-109.78921494 68.73697368 -113.36982821 68.55112135 -117.61230469 66.74414062 C-121.19593192 63.24583785 -121.91009319 59.91674413 -123.23730469 55.18164062 C-127.55712132 41.26823123 -135.0278341 29.1760653 -148.23730469 22.18164062 C-160.09934058 15.96198601 -176.9967143 16.01173276 -189.73754883 19.67333984 C-196.23843097 21.86936645 -201.8980234 24.90409023 -207.23730469 29.18164062 C-207.98367187 29.73207031 -208.73003906 30.2825 -209.49902344 30.84960938 C-218.81887808 38.27068209 -226.1537554 50.78051832 -227.53515625 62.76586914 C-227.67420402 65.51656419 -227.70497599 68.24017076 -227.67480469 70.99414062 C-227.66723145 71.96391846 -227.6596582 72.93369629 -227.65185547 73.93286133 C-227.48291696 81.2890854 -226.46548386 87.50403635 -223.23730469 94.18164062 C-222.81320313 95.12007813 -222.38910156 96.05851562 -221.95214844 97.02539062 C-215.89399547 109.31044735 -205.43230358 117.92638685 -192.86230469 123.18164062 C-188.55862975 124.3688613 -186.26150639 124.30953267 -182.39355469 122.15429688 C-177.88668577 120.12130709 -172.72934208 120.52791955 -168.01855469 121.76367188 C-162.21498374 124.2078681 -158.69699276 128.44536078 -156.23730469 134.18164062 C-155.09455656 139.86901017 -155.81457379 145.30625687 -158.71777344 150.35351562 C-162.31110107 154.6765936 -167.15128202 157.53036961 -172.64355469 158.68945312 C-179.01893207 159.01695539 -183.25362905 156.6732278 -188.10839844 152.61914062 C-190.60335822 150.93447054 -192.53552065 150.54244688 -195.48730469 149.99414062 C-208.08723443 147.04031094 -219.20351314 140.17466101 -229.23730469 132.18164062 C-229.54912349 142.85870798 -229.54912349 142.85870798 -227.23730469 153.18164062 C-226.98078125 153.97054687 -226.72425781 154.75945312 -226.45996094 155.57226562 C-224.13123642 162.08869645 -220.77885073 166.99962014 -216.23730469 172.18164062 C-215.73714844 172.7875 -215.23699219 173.39335937 -214.72167969 174.01757812 C-207.25734779 182.34897888 -195.89013257 188.37153405 -184.76782227 189.4128418 C-167.38793387 190.3365665 -153.38400164 187.87442058 -139.90136719 176.15039062 C-129.3940258 166.23648712 -123.61452851 154.32021566 -122.99902344 139.86132812 C-122.60534761 122.84323385 -126.62291034 110.06128341 -138.48730469 97.36914062 C-145.14113749 91.03269678 -153.463846 86.7982862 -162.23730469 84.18164062 C-164.65584413 84.61467435 -166.68632864 85.35512715 -168.98730469 86.24414062 C-174.38958285 87.80249009 -178.96057556 88.13997037 -183.98730469 85.55664062 C-188.31378071 82.78097907 -190.62654726 79.0139129 -192.23730469 74.18164062 C-192.74521279 67.95976642 -192.99084825 62.43660161 -189.23730469 57.18164062 C-185.27058783 53.20381251 -181.60780309 50.45515967 -175.98730469 49.80664062 C-171.08490446 50.29688065 -166.29759208 51.90364827 -162.90185547 55.65820312 C-160.92304407 57.46925961 -159.37497507 57.97992205 -156.80761719 58.72460938 C-155.93596924 58.98935059 -155.06432129 59.2540918 -154.16625977 59.52685547 C-152.778302 59.94378662 -152.778302 59.94378662 -151.36230469 60.36914062 C-137.78901902 64.68754575 -127.38558718 71.05082506 -117.23730469 81.18164062 C-116.53992188 81.86742188 -115.84253906 82.55320312 -115.12402344 83.25976562 C-100.01890834 99.09813874 -93.68157193 120.23944594 -93.8840332 141.73901367 C-94.07923609 148.19050391 -95.15179507 154.05912041 -97.23730469 160.18164062 C-97.58921875 161.23738281 -97.94113281 162.293125 -98.30371094 163.38085938 C-105.7952656 184.27314879 -120.26960914 201.24734048 -140.23730469 211.18164062 C-158.53155475 219.25767373 -180.38120722 221.88679255 -199.72167969 215.63867188 C-210.90134533 211.00532156 -221.26184449 205.39359286 -230.23730469 197.18164062 C-230.86765625 196.61960938 -231.49800781 196.05757812 -232.14746094 195.47851562 C-245.19222103 183.2078402 -254.98320442 163.30761049 -255.76855469 145.34960938 C-255.78449612 143.02281775 -255.77357161 140.69570421 -255.73730469 138.36914062 C-255.72884521 137.14952637 -255.72038574 135.92991211 -255.71166992 134.67333984 C-255.52675856 125.23721888 -254.04930702 117.14842719 -251.23730469 108.18164062 C-249.98787766 103.20355704 -250.57352655 99.99547548 -252.11230469 95.11914062 C-257.53266199 77.66407393 -257.57463957 58.06915742 -250.23730469 41.18164062 C-249.79128906 40.12203125 -249.34527344 39.06242187 -248.88574219 37.97070312 C-240.18772675 19.06831203 -224.51223898 4.04836833 -205.23730469 -3.81835938 C-187.78760541 -10.1892273 -163.89071515 -12.53984468 -146.23730469 -5.81835938 C-145.09261719 -5.40457031 -143.94792969 -4.99078125 -142.76855469 -4.56445312 C-129.90319443 0.47997766 -117.97729582 9.57165392 -110.23730469 21.18164062 C-109.57730469 21.18164062 -108.91730469 21.18164062 -108.23730469 21.18164062 C-106.99445139 19.72717442 -105.81825675 18.21548339 -104.67480469 16.68164062 C-93.36236979 2.31888846 -78.64634582 -5.97410445 -61.23730469 -10.81835938 C-60.31848511 -11.08447021 -60.31848511 -11.08447021 -59.38110352 -11.35595703 C-39.27244132 -15.69325417 -17.20399008 -10.80096573 0 0 Z" fill="#FCFCFC" transform="translate(276.2373046875,15.818359375)"/>
  
  <!-- Mantém o branco -->
  <path d="M0 0 C5.23872588 2.43226559 9.39841957 6.79683915 12 12 C12.72601866 19.17687302 12.4043488 24.20480421 8 30 C3.65955734 34.35177541 -0.04261143 36.14965853 -6.1875 36.375 C-12.00275741 36.30577075 -15.72335789 34.94457343 -20 31 C-24.20223791 25.85225856 -24.63368067 21.45413607 -24.37890625 14.87109375 C-23.64939163 9.34332836 -21.2102133 5.77687012 -17.0625 2.0625 C-11.92864553 -1.29339621 -5.86370685 -0.80956985 0 0 Z" fill="#FCFCFC" transform="translate(297,188)"/>
</svg>
